# xmcd
#
# Track frame offsets: 
#        150
#        18975
#        37590
#        58485
#        77760
#        102840
#        122475
#        141360
#        157380
#
# Disc length: 2392 seconds
#
# Revision: 0
# Processed by: cddbd v1.5.2PL0 Copyright (c) Steve Scherf et al.
# Submitted via: ExactAudioCopy v1.0b4
#
DISCID=74095609
DTITLE=Airborne Blues Virus - Minnie Water Music
DYEAR=2015
DGENRE=Blues Rock
TTITLE0=Feels Alright
TTITLE1=Hold
TTITLE2=Family Man Blues
TTITLE3=Burning Flame
TTITLE4=Carry On
TTITLE5=Dryin Eyes (For Tappo) [feat. A
TTITLE6=In the Sun
TTITLE7=Sometimes
TTITLE8=Wherever You Are
EXTD=
EXTT0=
EXTT1=
EXTT2=
EXTT3=
EXTT4=
EXTT5=
EXTT6=
EXTT7=
EXTT8=
PLAYORDER=
